<?xml version="1.0" standalone="no"?>
<!DOCTYPE svg PUBLIC "-//W3C//DTD SVG 20010904//EN"
 "http://www.w3.org/TR/2001/REC-SVG-20010904/DTD/svg10.dtd">
<svg version="1.0" xmlns="http://www.w3.org/2000/svg"
 width="252.000000pt" height="252.000000pt" viewBox="0 0 252.000000 252.000000"
 preserveAspectRatio="xMidYMid meet">
<metadata>
Created by potrace 1.14, written by Peter Selinger 2001-2017
</metadata>
<g transform="translate(0.000000,252.000000) scale(0.100000,-0.100000)"
fill="#000000" stroke="none">
<path d="M1148 2515 c-2 -2 -19 -6 -38 -9 -198 -31 -323 -75 -482 -167 -37
-22 -74 -46 -82 -55 -9 -8 -16 -13 -16 -11 0 3 -17 -9 -37 -26 -174 -149 -277
-282 -367 -472 -43 -91 -97 -284 -100 -355 -1 -14 -4 -29 -7 -35 -4 -5 -7 -62
-8 -125 -1 -87 1 -111 10 -100 9 12 10 11 4 -5 -9 -25 -9 -23 8 -116 41 -215
141 -435 265 -582 91 -108 232 -232 325 -283 154 -87 320 -149 417 -158 14 -1
30 -5 35 -8 10 -6 358 -2 407 4 15 2 30 7 34 11 4 4 17 7 30 7 31 0 166 47
252 87 104 49 236 140 317 220 77 74 145 149 145 158 0 3 8 15 19 26 10 11 29
40 41 64 13 25 27 45 32 45 4 0 8 6 8 14 0 7 10 33 23 57 47 90 92 227 114
349 13 72 6 393 -10 465 -20 90 -64 222 -87 260 -10 17 -18 33 -17 36 3 9 -92
165 -108 179 -8 7 -15 16 -15 21 0 21 -173 199 -233 239 -20 14 -37 28 -37 33
0 4 -7 7 -15 7 -8 0 -15 3 -15 8 0 26 -289 159 -384 176 -14 2 -30 7 -36 11
-5 3 -31 9 -58 11 -72 8 -81 10 -88 17 -4 3 -16 2 -27 -4 -14 -8 -18 -8 -12 0
5 9 -23 11 -99 10 -57 -1 -106 -2 -108 -4z"/>
</g>
</svg>
